<svg width="74" height="19" viewBox="0 0 74 19" fill="none" xmlns="http://www.w3.org/2000/svg">
<path d="M7.512 18.288C6.168 18.288 4.88 18.112 3.648 17.76C2.416 17.392 1.424 16.92 0.672 16.344L1.992 13.416C2.712 13.928 3.56 14.352 4.536 14.688C5.528 15.008 6.528 15.168 7.536 15.168C8.304 15.168 8.92 15.096 9.384 14.952C9.864 14.792 10.216 14.576 10.44 14.304C10.664 14.032 10.776 13.72 10.776 13.368C10.776 12.92 10.6 12.568 10.248 12.312C9.896 12.04 9.432 11.824 8.856 11.664C8.28 11.488 7.64 11.328 6.936 11.184C6.248 11.024 5.552 10.832 4.848 10.608C4.16 10.384 3.528 10.096 2.952 9.744C2.376 9.392 1.904 8.928 1.536 8.352C1.184 7.776 1.008 7.04 1.008 6.144C1.008 5.184 1.264 4.312 1.776 3.528C2.304 2.728 3.088 2.096 4.128 1.632C5.184 1.152 6.504 0.912 8.088 0.912C9.144 0.912 10.184 1.04 11.208 1.296C12.232 1.536 13.136 1.904 13.92 2.4L12.72 5.352C11.936 4.904 11.152 4.576 10.368 4.368C9.584 4.144 8.816 4.032 8.064 4.032C7.312 4.032 6.696 4.12 6.216 4.296C5.736 4.472 5.392 4.704 5.184 4.992C4.976 5.264 4.872 5.584 4.872 5.952C4.872 6.384 5.048 6.736 5.4 7.008C5.752 7.264 6.216 7.472 6.792 7.632C7.368 7.792 8 7.952 8.688 8.112C9.392 8.272 10.088 8.456 10.776 8.664C11.48 8.872 12.12 9.152 12.696 9.504C13.272 9.856 13.736 10.32 14.088 10.896C14.456 11.472 14.64 12.2 14.64 13.08C14.64 14.024 14.376 14.888 13.848 15.672C13.32 16.456 12.528 17.088 11.472 17.568C10.432 18.048 9.112 18.288 7.512 18.288ZM24.9527 18V15.48L24.7127 14.928V10.416C24.7127 9.616 24.4647 8.992 23.9687 8.544C23.4887 8.096 22.7447 7.872 21.7367 7.872C21.0487 7.872 20.3687 7.984 19.6967 8.208C19.0407 8.416 18.4807 8.704 18.0167 9.072L16.6727 6.456C17.3767 5.96 18.2247 5.576 19.2167 5.304C20.2087 5.032 21.2167 4.896 22.2407 4.896C24.2087 4.896 25.7367 5.36 26.8247 6.288C27.9127 7.216 28.4567 8.664 28.4567 10.632V18H24.9527ZM21.0167 18.192C20.0087 18.192 19.1447 18.024 18.4247 17.688C17.7047 17.336 17.1527 16.864 16.7687 16.272C16.3847 15.68 16.1927 15.016 16.1927 14.28C16.1927 13.512 16.3767 12.84 16.7447 12.264C17.1287 11.688 17.7287 11.24 18.5447 10.92C19.3607 10.584 20.4247 10.416 21.7367 10.416H25.1687V12.6H22.1447C21.2647 12.6 20.6567 12.744 20.3207 13.032C20.0007 13.32 19.8407 13.68 19.8407 14.112C19.8407 14.592 20.0247 14.976 20.3927 15.264C20.7767 15.536 21.2967 15.672 21.9527 15.672C22.5767 15.672 23.1367 15.528 23.6327 15.24C24.1287 14.936 24.4887 14.496 24.7127 13.92L25.2887 15.648C25.0167 16.48 24.5207 17.112 23.8007 17.544C23.0807 17.976 22.1527 18.192 21.0167 18.192ZM48.3812 4.896C49.4052 4.896 50.3092 5.104 51.0932 5.52C51.8932 5.92 52.5172 6.544 52.9652 7.392C53.4292 8.224 53.6612 9.296 53.6612 10.608V18H49.9172V11.184C49.9172 10.144 49.7012 9.376 49.2692 8.88C48.8372 8.384 48.2292 8.136 47.4452 8.136C46.9012 8.136 46.4132 8.264 45.9812 8.52C45.5492 8.76 45.2132 9.128 44.9732 9.624C44.7332 10.12 44.6132 10.752 44.6132 11.52V18H40.8692V11.184C40.8692 10.144 40.6532 9.376 40.2212 8.88C39.8052 8.384 39.2052 8.136 38.4212 8.136C37.8772 8.136 37.3892 8.264 36.9572 8.52C36.5252 8.76 36.1892 9.128 35.9492 9.624C35.7092 10.12 35.5892 10.752 35.5892 11.52V18H31.8452V5.088H35.4212V8.616L34.7492 7.584C35.1972 6.704 35.8292 6.04 36.6452 5.592C37.4772 5.128 38.4212 4.896 39.4772 4.896C40.6612 4.896 41.6932 5.2 42.5732 5.808C43.4692 6.4 44.0612 7.312 44.3492 8.544L43.0292 8.184C43.4612 7.176 44.1492 6.376 45.0932 5.784C46.0532 5.192 47.1492 4.896 48.3812 4.896Z" fill="black"/>
<path d="M60.7611 14.16L60.5451 9.672L68.5851 1.2H72.9051L65.6571 9L63.4971 11.304L60.7611 14.16ZM57.2811 18V1.2H61.1451V18H57.2811ZM68.7771 18L62.8011 10.68L65.3451 7.92L73.3131 18H68.7771Z" fill="#0D0F9C"/>
</svg>
